<svg width="22" height="22" viewBox="0 0 22 22" fill="none" xmlns="http://www.w3.org/2000/svg">
<path fill-rule="evenodd" clip-rule="evenodd" d="M10.6178 0C12.0373 0.0506994 13.5075 0.0506994 14.9269 0.101392C16.1943 0.152085 17.3603 0.354867 18.4756 1.0139C19.8951 1.87572 20.7569 3.14309 21.0611 4.76533C21.2131 5.72853 21.2638 6.74243 21.3145 7.70564C21.3652 9.83483 21.3145 11.964 21.3145 14.0932C21.3145 15.2085 21.2638 16.3238 20.909 17.3884C20.1992 19.4669 18.7291 20.7342 16.5999 21.1398C15.6367 21.3426 14.6228 21.3426 13.6596 21.3933C11.5304 21.444 9.45185 21.3933 7.32264 21.3933C6.20735 21.3933 5.09206 21.3426 4.02746 20.9877C1.94895 20.278 0.68157 18.8078 0.276006 16.6786C0.0732286 15.7154 0.0732286 14.7015 0.0225326 13.7383C-0.0281657 11.6091 0.0225326 9.47996 0.0225326 7.35077C0.0225326 6.23549 0.0732286 5.1202 0.428094 4.05559C1.13783 1.9771 2.60799 0.709734 4.73719 0.304173C5.7004 0.101399 6.71431 0.101399 7.67752 0.0506994C8.64073 0 9.60393 0 10.6178 0V0ZM19.3883 10.4939C19.3883 10.4939 19.3376 10.4939 19.3883 10.4939C19.3376 9.6321 19.3376 8.82097 19.3376 7.95916C19.3376 7.14805 19.2869 6.33692 19.1855 5.52581C18.9827 3.70078 17.9181 2.4841 16.1438 2.12924C15.2313 1.92646 14.2173 1.92646 13.3048 1.92646C11.4798 1.87577 9.70546 1.87577 7.88044 1.92646C6.96792 1.92646 6.05541 1.97715 5.19358 2.12924C3.67273 2.38271 2.60813 3.24453 2.15187 4.76538C1.99979 5.27233 1.94909 5.77928 1.8984 6.28623C1.8477 8.21264 1.8477 10.139 1.8477 12.0655C1.8477 13.2821 1.8984 14.5495 1.99979 15.7662C2.15187 17.5912 3.26717 18.8586 5.0922 19.1627C6.00471 19.3148 6.96792 19.3655 7.93113 19.3655C9.70546 19.4162 11.4798 19.3655 13.3048 19.3655C14.116 19.3655 14.9271 19.3148 15.7382 19.2134C16.4986 19.1627 17.2084 18.9093 17.8167 18.4023C18.8306 17.5912 19.1855 16.5266 19.2362 15.3099C19.3376 13.7891 19.3376 12.1668 19.3883 10.4939Z" fill="#081420"/>
<path fill-rule="evenodd" clip-rule="evenodd" d="M16.0928 10.6967C16.0928 13.7384 13.6594 16.1717 10.6177 16.1717C7.57595 16.1717 5.14258 13.7384 5.14258 10.646C5.14258 7.65502 7.62664 5.22168 10.6684 5.22168C13.6594 5.22168 16.0928 7.65502 16.0928 10.6967ZM10.6176 14.2453C12.544 14.2453 14.1662 12.623 14.1662 10.6966C14.1662 8.77025 12.544 7.14801 10.6176 7.14801C8.64044 7.14801 7.06888 8.77025 7.06888 10.6966C7.01819 12.623 8.64044 14.2453 10.6176 14.2453Z" fill="#081420"/>
<path d="M17.5641 4.96758C17.5641 5.67731 17.0064 6.28566 16.2967 6.28566C15.587 6.28566 14.9786 5.67731 15.0293 4.96758C15.0293 4.25785 15.587 3.7002 16.2967 3.7002C17.0064 3.7002 17.5641 4.25784 17.5641 4.96758Z" fill="#081420"/>
</svg>
