<svg width="22" height="21" viewBox="0 0 22 21" fill="none" xmlns="http://www.w3.org/2000/svg">
<path fill-rule="evenodd" clip-rule="evenodd" d="M21.4782 12.4811V20.3602H16.8772V12.9987C16.8772 11.1583 16.2446 9.89304 14.5767 9.89304C13.3115 9.89304 12.5638 10.7557 12.2187 11.5609C12.1037 11.8484 12.0462 12.251 12.0462 12.6536V20.3602H7.44522C7.44522 20.3602 7.50273 7.88013 7.44522 6.61487H12.0462V8.57027C12.0462 8.57027 12.0462 8.62777 11.9887 8.62777H12.0462V8.57027C12.6788 7.65008 13.7141 6.26979 16.1871 6.26979C19.1777 6.26979 21.4782 8.28271 21.4782 12.4811V12.4811ZM2.72868 0.000976562C1.17585 0.000976562 0.140625 1.03619 0.140625 2.35897C0.140625 3.68174 1.11834 4.71697 2.67117 4.71697H2.72868C4.33903 4.71697 5.31674 3.68175 5.31674 2.35897C5.25923 1.03619 4.28151 0.000976562 2.72868 0.000976562V0.000976562ZM0.371271 20.3602H4.91475V6.61489H0.371271V20.3602Z" fill="#081420"/>
</svg>
