<svg width="22" height="19" viewBox="0 0 22 19" fill="none" xmlns="http://www.w3.org/2000/svg">
<path fill-rule="evenodd" clip-rule="evenodd" d="M21.4611 2.82596C20.6578 3.1774 19.8545 3.42842 18.9509 3.52883C19.8545 2.97658 20.5574 2.1231 20.8586 1.11901C20.0052 1.62106 19.0513 1.97249 18.0974 2.1733C17.2941 1.31982 16.1394 0.767578 14.8843 0.767578C12.4744 0.767578 10.5164 2.72555 10.5164 5.13537C10.5164 5.48681 10.5666 5.83823 10.6168 6.13947C6.95189 5.93865 3.73878 4.23169 1.57996 1.57085C1.17832 2.22351 0.977505 2.97658 0.977505 3.77985C0.977505 5.28599 1.73058 6.64151 2.9355 7.44478C2.23263 7.44478 1.52976 7.24397 0.927299 6.89253V6.94273C0.927299 9.05133 2.43345 10.8587 4.44165 11.2603C4.0902 11.3607 3.68857 11.4109 3.28693 11.4109C2.9857 11.4109 2.73468 11.3607 2.48365 11.3105C3.03591 13.0677 4.64247 14.3228 6.60045 14.373C5.09431 15.5277 3.23672 16.2306 1.17832 16.2306C0.826892 16.2306 0.47546 16.2306 0.124023 16.1804C2.08202 17.4355 4.34123 18.1383 6.85148 18.1383C14.9345 18.1383 19.3023 11.4611 19.3023 5.68762C19.3023 5.48681 19.3023 5.28599 19.3023 5.13537C20.1558 4.48272 20.9088 3.67944 21.4611 2.82596V2.82596Z" fill="#6C5FBC"/>
</svg>
