<svg width="301" height="436" viewBox="0 0 301 436" fill="none" xmlns="http://www.w3.org/2000/svg">
<path opacity="0.2" d="M250.647 3C227.168 5.19194 201.668 5.53566 178.791 10.6617C156.404 15.6777 132.829 24.7775 113.133 34.3884C76.8366 52.0993 58.247 76.8937 41.3817 106.474C13.5492 155.291 3.47251 205.923 3.03752 258.967C2.74956 294.083 4.09949 328.842 7.76489 363.842C8.88398 374.529 8.32465 386.745 16.1691 395.972" stroke="#A596FF" stroke-width="4.44874" stroke-linecap="round"/>
<path opacity="0.2" d="M298.1 28.209C273.919 30.4671 247.656 30.8212 224.093 36.102C201.036 41.2694 176.755 50.6439 156.469 60.5449C119.086 78.7906 99.9402 104.333 82.57 134.807C53.9041 185.098 43.5257 237.258 43.0777 291.904C42.7811 328.08 44.1715 363.887 47.9466 399.945C49.0992 410.954 48.5231 423.538 56.6025 433.045" stroke="#A596FF" stroke-width="4.44874" stroke-linecap="round"/>
</svg>
