<svg width="646" height="996" viewBox="0 0 646 996" fill="none" xmlns="http://www.w3.org/2000/svg">
<path opacity="0.2" d="M533.604 950.361C538.974 918.896 546.808 889.3 544.802 855.373C543.368 831.141 537.367 807.293 525.829 784.537C504.317 742.11 476.196 701.663 442.764 669.436C408.603 636.504 375.066 600.672 336.49 575.383C300.624 551.871 262.37 532.445 227.402 506.893C168.814 464.081 127.346 395.764 92.1497 330.195C73.5294 295.507 55.0618 260.582 37.2353 225.483C26.0487 203.457 16.6513 179.837 2.89629 159.368" stroke="#A596FF" stroke-width="4.01667" stroke-linecap="round"/>
<path opacity="0.2" d="M577.264 939.084C583.058 905.09 591.513 873.117 589.338 836.462C587.785 810.281 581.298 784.515 568.831 759.927C545.586 714.084 515.204 670.38 479.087 635.554C442.182 599.968 405.951 561.248 364.279 533.918C325.534 508.508 284.212 487.512 246.437 459.899C183.146 413.633 138.342 339.814 100.312 268.967C80.1924 231.486 60.2378 193.749 40.9757 155.824C28.8882 132.025 18.733 106.504 3.87164 84.3873" stroke="#A596FF" stroke-width="4.01667" stroke-linecap="round"/>
</svg>
