<svg width="45" height="41" viewBox="0 0 45 41" fill="none" xmlns="http://www.w3.org/2000/svg">
<rect x="0.922852" y="0.884766" width="43.8299" height="39.7208" rx="8.93034" fill="#323142"/>
<mask id="path-2-inside-1_1421_175" fill="white">
<path d="M29.8003 21.9623H23.4608V28.3912H20.9309V21.9623H14.6211V19.6705H20.9309V13.2119H23.4608V19.6705H29.8003V21.9623Z"/>
</mask>
<path d="M29.8003 21.9623H23.4608V28.3912H20.9309V21.9623H14.6211V19.6705H20.9309V13.2119H23.4608V19.6705H29.8003V21.9623Z" fill="black"/>
<path d="M29.8003 21.9623V26.0714H33.9094V21.9623H29.8003ZM23.4608 21.9623V17.8533H19.3517V21.9623H23.4608ZM23.4608 28.3912V32.5002H27.5698V28.3912H23.4608ZM20.9309 28.3912H16.8218V32.5002H20.9309V28.3912ZM20.9309 21.9623H25.0399V17.8533H20.9309V21.9623ZM14.6211 21.9623H10.512V26.0714H14.6211V21.9623ZM14.6211 19.6705V15.5615H10.512V19.6705H14.6211ZM20.9309 19.6705V23.7796H25.0399V19.6705H20.9309ZM20.9309 13.2119V9.10286H16.8218V13.2119H20.9309ZM23.4608 13.2119H27.5698V9.10286H23.4608V13.2119ZM23.4608 19.6705H19.3517V23.7796H23.4608V19.6705ZM29.8003 19.6705H33.9094V15.5615H29.8003V19.6705ZM29.8003 17.8533H23.4608V26.0714H29.8003V17.8533ZM19.3517 21.9623V28.3912H27.5698V21.9623H19.3517ZM23.4608 24.2821H20.9309V32.5002H23.4608V24.2821ZM25.0399 28.3912V21.9623H16.8218V28.3912H25.0399ZM20.9309 17.8533H14.6211V26.0714H20.9309V17.8533ZM18.7301 21.9623V19.6705H10.512V21.9623H18.7301ZM14.6211 23.7796H20.9309V15.5615H14.6211V23.7796ZM25.0399 19.6705V13.2119H16.8218V19.6705H25.0399ZM20.9309 17.321H23.4608V9.10286H20.9309V17.321ZM19.3517 13.2119V19.6705H27.5698V13.2119H19.3517ZM23.4608 23.7796H29.8003V15.5615H23.4608V23.7796ZM25.6913 19.6705V21.9623H33.9094V19.6705H25.6913Z" fill="white" mask="url(#path-2-inside-1_1421_175)"/>
</svg>
