<svg width="27" height="31" viewBox="0 0 27 31" fill="none" xmlns="http://www.w3.org/2000/svg">
<path d="M25.796 23.3925C25.3369 24.4412 24.7935 25.4066 24.1639 26.2941C23.3057 27.504 22.603 28.3415 22.0615 28.8065C21.222 29.5699 20.3226 29.9609 19.3594 29.9831C18.668 29.9831 17.8341 29.7886 16.8635 29.3939C15.8897 29.0011 14.9947 28.8065 14.1764 28.8065C13.3182 28.8065 12.3978 29.0011 11.4133 29.3939C10.4273 29.7886 9.63297 29.9942 9.02566 30.0146C8.10205 30.0535 7.18144 29.6514 6.26252 28.8065C5.67601 28.3007 4.94241 27.4336 4.06358 26.2051C3.12068 24.8933 2.34548 23.3721 1.73817 21.6378C1.08776 19.7646 0.761719 17.9507 0.761719 16.1945C0.761719 14.1829 1.20132 12.4479 2.08183 10.9939C2.77383 9.82607 3.69444 8.90483 4.84666 8.22854C5.99887 7.55225 7.24384 7.20761 8.58456 7.18556C9.31816 7.18556 10.2802 7.40995 11.4757 7.85093C12.6678 8.29339 13.4333 8.51777 13.7689 8.51777C14.0198 8.51777 14.8701 8.2554 16.3117 7.73234C17.6749 7.24727 18.8254 7.04642 19.7679 7.12553C22.3219 7.32935 24.2407 8.32489 25.5168 10.1185C23.2326 11.487 22.1027 13.4037 22.1252 15.8627C22.1458 17.778 22.8485 19.3718 24.2295 20.6373C24.8554 21.2247 25.5543 21.6786 26.3319 22.001C26.1633 22.4846 25.9853 22.9478 25.796 23.3925V23.3925ZM19.9384 0.600515C19.9384 2.10172 19.3838 3.50338 18.2782 4.80075C16.9441 6.34307 15.3303 7.23429 13.5804 7.09366C13.5581 6.91357 13.5451 6.72402 13.5451 6.52484C13.5451 5.08368 14.1796 3.54137 15.3063 2.28031C15.8689 1.64182 16.5843 1.11092 17.4519 0.687413C18.3176 0.270223 19.1364 0.0395089 19.9066 0C19.9291 0.200687 19.9384 0.401387 19.9384 0.600495V0.600515Z" fill="#323142"/>
</svg>
