<svg width="23" height="23" viewBox="0 0 23 23" fill="none" xmlns="http://www.w3.org/2000/svg">
<path d="M16.7109 6.80908C16.2128 5.89596 15.528 5.20075 14.6564 4.72344C13.7848 4.24613 12.7679 4.00747 11.6057 4.00747C10.3191 4.00747 9.17767 4.29801 8.18154 4.87908C7.18541 5.46016 6.40719 6.29026 5.84687 7.3694C5.28655 8.44853 5.00639 9.69369 5.00639 11.1049C5.00639 12.5576 5.28655 13.8235 5.84687 14.9026C6.42794 15.9817 7.22692 16.8118 8.2438 17.3929C9.26068 17.974 10.4436 18.2645 11.7925 18.2645C13.4527 18.2645 14.812 17.8287 15.8704 16.9571C16.9288 16.0647 17.624 14.83 17.956 13.2528H10.4851V9.92197H22.2518V13.7197C21.9613 15.2346 21.3387 16.6354 20.3841 17.9221C19.4295 19.2088 18.1947 20.2464 16.6797 21.035C15.1856 21.8029 13.5046 22.1868 11.6369 22.1868C9.54084 22.1868 7.64197 21.7198 5.94026 20.786C4.25929 19.8314 2.93113 18.5136 1.95575 16.8326C1.00113 15.1516 0.523821 13.2424 0.523821 11.1049C0.523821 8.96735 1.00113 7.05811 1.95575 5.37714C2.93113 3.67543 4.25929 2.35764 5.94026 1.42377C7.64197 0.469149 9.53046 -0.00816153 11.6057 -0.00816153C14.0545 -0.00816153 16.1817 0.593664 17.9872 1.79732C19.7926 2.98022 21.0378 4.6508 21.7226 6.80908H16.7109Z" fill="#323142"/>
</svg>
