<svg width="19" height="24" viewBox="0 0 19 24" fill="none" xmlns="http://www.w3.org/2000/svg">
<path d="M7.44951 16.8346C7.44951 15.8183 8.27337 14.9944 9.28965 14.9944C10.3059 14.9944 11.1298 15.8183 11.1298 16.8346C11.1298 17.8508 10.3059 18.6747 9.28965 18.6747C8.27337 18.6747 7.44951 17.8508 7.44951 16.8346Z" fill="#C2C3CB"/>
<path fill-rule="evenodd" clip-rule="evenodd" d="M3.91846 10.2065L3.53149 6.7238C3.48188 6.27728 3.48188 5.82665 3.53149 5.38013L3.55942 5.12877C3.85567 2.46254 5.95171 0.352933 8.61598 0.0394899C9.06353 -0.0131633 9.51571 -0.0131633 9.96327 0.03949C12.6275 0.352933 14.7236 2.46254 15.0198 5.12877L15.0478 5.38013C15.0974 5.82665 15.0974 6.27728 15.0478 6.7238L14.6608 10.2065L15.5031 10.2738C16.8313 10.3798 17.9159 11.3783 18.1312 12.6932C18.5803 15.4359 18.5803 18.2333 18.1312 20.9759C17.9159 22.2908 16.8313 23.2893 15.5031 23.3953L13.6677 23.5419C10.7537 23.7745 7.82571 23.7745 4.91168 23.5419L3.07629 23.3953C1.74804 23.2893 0.663456 22.2908 0.44814 20.9759C-0.000942564 18.2333 -0.000942564 15.4359 0.44814 12.6932C0.663456 11.3783 1.74804 10.3798 3.07629 10.2738L3.91846 10.2065ZM8.83098 1.86703C9.13569 1.83118 9.44355 1.83118 9.74826 1.86703C11.5622 2.08043 12.9892 3.51672 13.1909 5.33198L13.2189 5.58334C13.2535 5.8948 13.2535 6.20913 13.2189 6.52059L12.8249 10.0665C10.4705 9.91487 8.10876 9.91488 5.75437 10.0665L5.36038 6.52059C5.32577 6.20913 5.32577 5.8948 5.36038 5.58334L5.38831 5.33198C5.59 3.51672 7.01706 2.08043 8.83098 1.86703ZM13.5212 11.9616C10.7047 11.7367 7.87468 11.7367 5.05812 11.9616L3.22273 12.1081C2.73824 12.1468 2.34264 12.511 2.2641 12.9906C1.84726 15.5363 1.84726 18.1328 2.2641 20.6785C2.34264 21.1582 2.73824 21.5223 3.22273 21.561L5.05812 21.7075C7.87468 21.9324 10.7047 21.9324 13.5212 21.7075L15.3566 21.561C15.8411 21.5223 16.2367 21.1582 16.3153 20.6785C16.7321 18.1328 16.7321 15.5363 16.3153 12.9906C16.2367 12.511 15.8411 12.1468 15.3566 12.1081L13.5212 11.9616Z" fill="#C2C3CB"/>
</svg>
