<svg width="23" height="19" viewBox="0 0 23 19" fill="none" xmlns="http://www.w3.org/2000/svg">
<path fill-rule="evenodd" clip-rule="evenodd" d="M0.231689 5.31053C-0.105132 8.29949 -0.0901184 11.7467 0.378573 14.7235C0.63791 16.3707 2.04543 17.6334 3.78285 17.7777L5.59863 17.9284C9.38478 18.2428 13.1924 18.2428 16.9785 17.9284L18.7943 17.7777C20.5317 17.6334 21.9392 16.3707 22.1986 14.7235C22.6672 11.7467 22.6823 8.29968 22.3455 5.31071C22.3019 4.96419 22.2529 4.61814 22.1986 4.27267C21.9392 2.62553 20.5317 1.36279 18.7943 1.21854L16.9785 1.06779C13.1923 0.753446 9.38478 0.753446 5.59863 1.06779L3.78285 1.21854C2.04542 1.36279 0.63791 2.62553 0.378573 4.27267C0.324189 4.61808 0.275227 4.96407 0.231689 5.31053ZM5.75481 2.78379C9.43704 2.47808 13.1401 2.47808 16.8223 2.78379L18.6381 2.93455C19.545 3.00985 20.2798 3.669 20.4151 4.52881C20.4292 4.6181 20.4429 4.70743 20.4562 4.7968L13.7701 8.34447C12.2268 9.16335 10.3502 9.16335 8.80696 8.34447L2.12096 4.79684C2.13425 4.70746 2.14793 4.61811 2.162 4.52881C2.29737 3.669 3.03209 3.00985 3.93904 2.93455L5.75481 2.78379ZM20.6769 6.65015C20.9101 9.25425 20.8228 11.878 20.4151 14.4674C20.2798 15.3272 19.545 15.9864 18.6381 16.0617L16.8223 16.2124C13.1401 16.5181 9.43704 16.5181 5.75482 16.2124L3.93904 16.0617C3.0321 15.9864 2.29737 15.3272 2.162 14.4674C1.7543 11.878 1.66706 9.25428 1.90027 6.65019L7.93112 9.85019C10.0191 10.9581 12.5579 10.9581 14.6459 9.85019L20.6769 6.65015Z" fill="#C2C3CB"/>
</svg>
