<svg width="51" height="51" viewBox="0 0 51 51" fill="none" xmlns="http://www.w3.org/2000/svg">
<rect x="0.129883" y="0.188477" width="50.2588" height="50.2588" rx="25.1294" fill="#F2FDF6"/>
<path d="M30.494 35.0031H20.0234C16.8822 35.0031 14.7881 33.4325 14.7881 29.7678V22.4384C14.7881 18.7737 16.8822 17.2031 20.0234 17.2031H30.494C33.6351 17.2031 35.7293 18.7737 35.7293 22.4384V29.7678C35.7293 33.4325 33.6351 35.0031 30.494 35.0031Z" stroke="#22C55E" stroke-width="1.57059" stroke-miterlimit="10" stroke-linecap="round" stroke-linejoin="round"/>
<path d="M25.2593 29.2452C26.9942 29.2452 28.4005 27.8389 28.4005 26.1041C28.4005 24.3692 26.9942 22.9629 25.2593 22.9629C23.5245 22.9629 22.1182 24.3692 22.1182 26.1041C22.1182 27.8389 23.5245 29.2452 25.2593 29.2452Z" stroke="#22C55E" stroke-width="1.57059" stroke-miterlimit="10" stroke-linecap="round" stroke-linejoin="round"/>
<path d="M18.4541 23.4854V28.7206" stroke="#22C55E" stroke-width="1.57059" stroke-miterlimit="10" stroke-linecap="round" stroke-linejoin="round"/>
<path d="M32.0645 23.4854V28.7206" stroke="#22C55E" stroke-width="1.57059" stroke-miterlimit="10" stroke-linecap="round" stroke-linejoin="round"/>
</svg>
