<svg width="51" height="51" viewBox="0 0 51 51" fill="none" xmlns="http://www.w3.org/2000/svg">
<rect x="0.129883" y="0.129883" width="50.2588" height="50.2588" rx="25.1294" fill="#F4F0FF"/>
<path d="M25.95 14.5454L25.9186 14.6187L22.8822 21.6654H19.898C19.186 21.6654 18.5055 21.812 17.8877 22.0738L19.72 17.6971L19.7619 17.5924L19.8352 17.4249C19.8562 17.362 19.8771 17.2992 19.9085 17.2469C21.2802 14.0743 22.8298 13.3518 25.95 14.5454Z" stroke="#936DFF" stroke-width="1.57059" stroke-linecap="round" stroke-linejoin="round"/>
<path d="M31.5934 21.8753C31.1222 21.7287 30.6196 21.6659 30.117 21.6659H22.8818L25.9183 14.6192L25.9497 14.5459C26.1068 14.5983 26.2534 14.6715 26.4104 14.7344L28.7244 15.7081C30.0123 16.2421 30.9128 16.7971 31.4572 17.4672C31.562 17.5928 31.6457 17.708 31.719 17.8441C31.8132 17.9907 31.8865 18.1373 31.9284 18.2944C31.9703 18.3886 32.0017 18.4828 32.0227 18.5666C32.3054 19.4461 32.1378 20.5246 31.5934 21.8753Z" stroke="#936DFF" stroke-width="1.57059" stroke-linecap="round" stroke-linejoin="round"/>
<path d="M35.2279 26.7757V28.8174C35.2279 29.0268 35.2175 29.2363 35.207 29.4457C35.008 33.0999 32.9663 34.9427 29.0922 34.9427H20.9251C20.6738 34.9427 20.4225 34.9218 20.1817 34.8904C16.852 34.6705 15.072 32.8905 14.8522 29.5608C14.8207 29.32 14.7998 29.0687 14.7998 28.8174V26.7757C14.7998 24.6711 16.0772 22.8597 17.8991 22.0744C18.5273 21.8126 19.1975 21.666 19.9095 21.666H30.1287C30.6418 21.666 31.1444 21.7393 31.6051 21.8754C33.6887 22.5141 35.2279 24.4617 35.2279 26.7757Z" stroke="#936DFF" stroke-width="1.57059" stroke-linecap="round" stroke-linejoin="round"/>
<path d="M19.7197 17.6973L17.8874 22.074C16.0655 22.8593 14.7881 24.6707 14.7881 26.7753V23.7074C14.7881 20.7337 16.9031 18.2522 19.7197 17.6973Z" stroke="#936DFF" stroke-width="1.57059" stroke-linecap="round" stroke-linejoin="round"/>
<path d="M35.2254 23.7072V26.7751C35.2254 24.4716 33.6967 22.5136 31.6025 21.8854C32.147 20.5242 32.3041 19.4562 32.0423 18.5662C32.0214 18.4719 31.99 18.3777 31.9481 18.2939C33.8956 19.2991 35.2254 21.3618 35.2254 23.7072Z" stroke="#936DFF" stroke-width="1.57059" stroke-linecap="round" stroke-linejoin="round"/>
</svg>
