<svg width="21" height="24" viewBox="0 0 21 24" fill="none" xmlns="http://www.w3.org/2000/svg">
<path d="M10.5012 0.651367C7.81761 0.651367 5.64209 2.94731 5.64209 5.7795C5.64209 8.61168 7.81761 10.9076 10.5012 10.9076C13.1849 10.9076 15.3604 8.61168 15.3604 5.7795C15.3604 2.94731 13.1849 0.651367 10.5012 0.651367Z" fill="#C2C3CB"/>
<path d="M5.31814 13.6426C2.6345 13.6426 0.458984 15.9386 0.458984 18.7708V20.3957C0.458984 21.4258 1.16633 22.304 2.12959 22.47C7.67399 23.4253 13.3285 23.4253 18.8729 22.47C19.8362 22.304 20.5435 21.4258 20.5435 20.3957V18.7708C20.5435 15.9386 18.368 13.6426 15.6843 13.6426H15.2427C15.0036 13.6426 14.766 13.6825 14.5388 13.7608L13.4173 14.1473C11.5225 14.8003 9.48001 14.8003 7.58521 14.1473L6.4637 13.7608C6.23645 13.6825 5.99889 13.6426 5.75983 13.6426H5.31814Z" fill="#C2C3CB"/>
</svg>
